Coordinates
version=1
nRows=6
nColumns=107
inDegrees=yes

Units are S.I. units (second, meters, Newtons, ...)
If the header above contains a line with 'inDegrees', this indicates whether rotational values are in degrees (yes) or radians (no).

endheader
time	sternoclavicular_r2	sternoclavicular_r3	unrotscap_r3	unrotscap_r2	acromioclavicular_r2	acromioclavicular_r3	acromioclavicular_r1	unrothum_r1	unrothum_r3	unrothum_r2	elv_angle	shoulder_elv	shoulder1_r2	shoulder_rot	elbow_flexion	pro_sup	deviation	flexion	proximal_distal_r1	proximal_distal_r3	cmc_flexion	cmc_abduction	mp_flexion	ip_flexion	mcp2_flexion	mcp2_abduction	pm2_flexion	md2_flexion	mcp3_flexion	mcp3_abduction	pm3_flexion	md3_flexion	mcp4_flexion	mcp4_abduction	pm4_flexion	md4_flexion	mcp5_flexion	mcp5_abduction	pm5_flexion	md5_flexion	bicpt_tx	bicpt_ty	bicpt_tz	bicpt2_tx	bicpt2_ty	bicpt2_tz	ptpt_tx	ptpt_ty	ptpt_tz	FCUpt_tx	FCUpt_ty	FCUpt_tz	EDCpt_tx	EDCpt_ty	EDCpt_tz	APLpt_tx	APLpt_ty	APLpt_tz	FPLpt_tx	FPLpt_ty	FPLpt_tz	FPLpt2_tx	FPLpt2_ty	FPLpt2_tz	PEC1pt2_tx	PEC1pt2_ty	PEC1pt2_tz	PEC1pt3_tx	PEC1pt3_ty	PEC1pt3_tz	PEC2pt2_tx	PEC2pt2_ty	PEC2pt2_tz	PEC2pt3_tx	PEC2pt3_ty	PEC2pt3_tz	PEC3pt2_tx	PEC3pt2_ty	PEC3pt2_tz	PEC3pt3_tx	PEC3pt3_ty	PEC3pt3_tz	DELT2pt2a_tx	DELT2pt2a_ty	DELT2pt2a_tz	DELT2pt2_tx	DELT2pt2_ty	DELT2pt2_tz	LAT1pt2_tx	LAT1pt2_ty	LAT1pt2_tz	LAT1pt3_tx	LAT1pt3_ty	LAT1pt3_tz	LAT2pt2_tx	LAT2pt2_ty	LAT2pt2_tz	LAT2pt3_tx	LAT2pt3_ty	LAT2pt3_tz	LAT3pt2_tx	LAT3pt2_ty	LAT3pt2_tz	LAT3pt3_tx	LAT3pt3_ty	LAT3pt3_tz
      1.03333333	     -0.30674902	      0.12992441	     -0.12992441	      0.30674902	     -0.06211044	      0.50195469	      0.22562518	     -0.22562518	     -0.50195469	      0.06211044	    101.89209409	     72.62555597	     -1.77835252	    -42.09054190	     34.18032197	     88.55160293	      0.39250737	     -0.07820053	      0.40658695	     -0.03910026	     40.98599883	    -22.95671037	     14.34114998	     12.38402915	     45.20190717	     12.42407663	     47.34720562	     46.91500624	     47.77809103	     -1.04036123	     52.27022508	     33.14587159	     39.55197326	    -11.39022520	     61.79604208	     32.34377999	     38.74425216	    -14.51375253	     48.47702531	      5.39073917	      0.00103058	     -0.03151759	     -0.00493102	      0.01396870	     -0.01948525	     -0.00063452	      0.00100704	     -0.06913079	     -0.00718331	      0.01303212	     -0.18215040	      0.00015653	     -0.01062617	      0.00371904	     -0.00084091	      0.00007489	      0.00002996	      0.00014978	      0.00009586	      0.00028758	      0.00016177	     -0.00000912	     -0.00009140	     -0.00010968	      0.00238051	      0.00835195	      0.00581005	     -0.00778708	      0.01880197	     -0.01783362	      0.00238051	      0.00835195	      0.00581005	      0.00052452	      0.01743015	     -0.00915890	      0.00381158	      0.00464441	      0.01562473	      0.00000000	      0.00704956	      0.00000000	     -0.00681874	     -0.03151145	     -0.00580826	      0.02326011	     -0.00118739	     -0.01416744	     -0.00084730	      0.01420234	     -0.00581005	      0.00234016	      0.02049656	     -0.01694598	     -0.00568901	      0.01230601	     -0.00520484	     -0.01186218	      0.02598383	     -0.02909059	     -0.02227186	      0.01375852	     -0.00698013	     -0.01476721	      0.03001859	     -0.03635316
      1.06666667	     -0.30420201	      0.12884561	     -0.12884561	      0.30420201	     -0.06159472	      0.49778686	      0.22375177	     -0.22375177	     -0.49778686	      0.06159472	    102.88913709	     72.02253038	     -1.79575421	    -44.81575483	     34.30947230	     88.18788525	      0.38543544	      0.05570334	      0.40149247	      0.02785167	     39.18017109	    -22.16505334	     14.79223526	     12.53499580	     32.06521799	     11.16014167	     40.06126790	     36.67538036	     32.64460164	     -2.62709874	     40.97335168	     26.02063232	     23.79388553	     -9.55479405	     47.35291020	     26.73608952	     22.62744913	    -14.45475578	     18.77765713	      5.34282661	      0.00103485	     -0.03153239	     -0.00493341	      0.01400827	     -0.01952034	     -0.00069801	      0.00103391	     -0.06911341	     -0.00715401	      0.01299008	     -0.18216296	      0.00014586	     -0.01058252	      0.00369882	     -0.00082877	     -0.00005959	     -0.00002384	     -0.00011918	     -0.00007628	     -0.00022883	     -0.00012872	     -0.00001136	     -0.00012669	     -0.00015202	      0.00236074	      0.00828260	      0.00576181	     -0.00772242	      0.01864585	     -0.01768555	      0.00236074	      0.00828260	      0.00576181	      0.00052016	      0.01728542	     -0.00908285	      0.00378790	      0.00460585	      0.01556327	      0.00000000	      0.00693231	      0.00000000	     -0.00676212	     -0.03124980	     -0.00571081	      0.02397784	     -0.00128813	     -0.01585012	     -0.00084026	      0.01408442	     -0.00576181	      0.00232073	      0.02032638	     -0.01680527	     -0.00564177	      0.01220383	     -0.00516162	     -0.01176369	      0.02576808	     -0.02884905	     -0.02208693	      0.01364428	     -0.00692217	     -0.01464459	      0.02976934	     -0.03605131
      1.10000000	     -0.30454264	      0.12898989	     -0.12898989	      0.30454264	     -0.06166369	      0.49834424	      0.22400231	     -0.22400231	     -0.49834424	      0.06166369	    103.52918049	     72.10317621	     -1.80692507	    -45.79530769	     33.53875385	     86.69796395	      0.36098469	      0.09532223	      0.38324747	      0.04766112	     38.02444349	    -21.64222009	     13.96649661	     12.39426442	     19.60579169	     10.97859109	     39.81032994	     19.58615370	     19.90614009	     -3.23332925	     32.86252920	     21.30393798	     12.80146309	     -7.65340024	     34.29163801	     24.02425738	      8.39087553	    -14.31152062	     10.64052844	      5.26906937	      0.00100936	     -0.03144405	     -0.00491918	      0.01416720	     -0.01931097	     -0.00095617	      0.00114400	     -0.06904223	     -0.00703399	      0.01281826	     -0.18221403	      0.00010320	     -0.01040373	      0.00361639	     -0.00077976	     -0.00010514	     -0.00004205	     -0.00021027	     -0.00013458	     -0.00040373	     -0.00022710	     -0.00001225	     -0.00014736	     -0.00017683	      0.00236338	      0.00829187	      0.00576826	     -0.00773107	      0.01866673	     -0.01770535	      0.00236338	      0.00829187	      0.00576826	      0.00052075	      0.01730478	     -0.00909302	      0.00379107	      0.00461100	      0.01557154	      0.00000000	      0.00694793	      0.00000000	     -0.00676969	     -0.03128479	     -0.00572380	      0.02421152	     -0.00132457	     -0.01646762	     -0.00084120	      0.01410019	     -0.00576826	      0.00232333	      0.02034914	     -0.01682409	     -0.00564809	      0.01221749	     -0.00516740	     -0.01177686	      0.02579694	     -0.02888135	     -0.02211166	      0.01365956	     -0.00692992	     -0.01466099	      0.02980267	     -0.03609168
      1.13333333	     -0.30608790	      0.12964439	     -0.12964439	      0.30608790	     -0.06197657	      0.50087286	      0.22513890	     -0.22513890	     -0.50087286	      0.06197657	    103.58555018	     72.46903044	     -1.80790891	    -45.08849409	     32.73045843	     84.20978441	      0.33005482	      0.08094684	      0.35876596	      0.04047342	     37.04321866	    -21.41412911	     11.65206060	     12.24592615	     10.56470169	     10.85530636	     36.70204890	     17.66103231	     10.31996555	     -3.38003353	     27.89544259	     20.79181785	      5.28115677	     -6.38492114	     25.06685978	     22.83640891	     -0.16334665	    -14.15181786	      9.06330878	      5.27900445	      0.00098262	     -0.03135141	     -0.00490425	      0.01442130	     -0.01909139	     -0.00138037	      0.00132785	     -0.06892335	     -0.00683355	      0.01253284	     -0.18229790	      0.00003569	     -0.01010515	      0.00348027	     -0.00070060	     -0.00008827	     -0.00003531	     -0.00017653	     -0.00011298	     -0.00033894	     -0.00019066	     -0.00001271	     -0.00016383	     -0.00019660	      0.00237538	      0.00833395	      0.00579753	     -0.00777030	      0.01876144	     -0.01779519	      0.00237538	      0.00833395	      0.00579753	      0.00052339	      0.01739258	     -0.00913916	      0.00380545	      0.00463440	      0.01560887	      0.00000000	      0.00701903	      0.00000000	     -0.00680404	     -0.03144353	     -0.00578289	      0.02404419	     -0.00129826	     -0.01602141	     -0.00084547	      0.01417173	     -0.00579753	      0.00233512	      0.02045239	     -0.01690945	     -0.00567675	      0.01227948	     -0.00519362	     -0.01183662	      0.02592783	     -0.02902790	     -0.02222385	      0.01372887	     -0.00696508	     -0.01473538	      0.02995389	     -0.03627481
      1.16666667	     -0.30768411	      0.13032047	     -0.13032047	      0.30768411	     -0.06229977	      0.50348486	      0.22631298	     -0.22631298	     -0.50348486	      0.06229977	    103.37203245	     72.84694835	     -1.80418232	    -43.63227681	     32.05576480	     81.63875525	      0.30932408	      0.05651662	      0.34148056	      0.02825831	     36.48572549	    -21.11560687	      8.60683380	     11.00304448	      3.52606018	     10.82852930	     33.01043787	     16.42192480	      3.56798284	     -3.76412225	     23.55859259	     19.56225189	      0.48153928	     -5.46769491	     20.36527213	     21.50615844	     -4.63011969	    -13.99331386	      6.22770700	      5.19304704	      0.00096031	     -0.03127408	     -0.00489180	      0.01466897	     -0.01890811	     -0.00180956	      0.00151782	     -0.06880051	     -0.00662644	      0.01223993	     -0.18238272	     -0.00002916	     -0.00979663	      0.00334162	     -0.00062233	     -0.00006050	     -0.00002420	     -0.00012100	     -0.00007744	     -0.00023232	     -0.00013068	     -0.00001281	     -0.00017259	     -0.00020711	      0.00238776	      0.00837741	      0.00582776	     -0.00781082	      0.01885928	     -0.01788799	      0.00238776	      0.00837741	      0.00582776	      0.00052612	      0.01748328	     -0.00918682	      0.00382024	      0.00465857	      0.01564707	      0.00000000	      0.00709286	      0.00000000	     -0.00683952	     -0.03160751	     -0.00584425	      0.02367834	     -0.00124425	     -0.01511278	     -0.00084988	      0.01424564	     -0.00582776	      0.00234729	      0.02055905	     -0.01699764	     -0.00570635	      0.01234352	     -0.00522070	     -0.01189834	      0.02606304	     -0.02917927	     -0.02233975	      0.01380046	     -0.00700141	     -0.01481223	      0.03011010	     -0.03646398
      1.20000000	     -0.30900632	      0.13088049	     -0.13088049	      0.30900632	     -0.06256749	      0.50564848	      0.22728551	     -0.22728551	     -0.50564848	      0.06256749	    103.09270727	     73.15999282	     -1.79930718	    -42.16420646	     31.60571460	     78.86980190	      0.29108490	      0.03053824	      0.32569113	      0.01526912	     35.39500350	    -20.55114039	      5.23971534	      9.99216800	     -2.10536627	     10.76385163	     30.98854657	     15.75657478	     -1.97609177	     -3.81409635	     21.25113721	     19.17542602	     -3.50261061	     -4.84427127	     16.66880843	     20.94604511	     -7.63424368	    -13.84286205	      5.02401964	      5.23675911	      0.00094542	     -0.03122250	     -0.00488349	      0.01491880	     -0.01878585	     -0.00226144	      0.00172241	     -0.06866822	     -0.00640339	      0.01192676	     -0.18247198	     -0.00009345	     -0.00946435	      0.00319458	     -0.00054204	     -0.00003203	     -0.00001281	     -0.00006405	     -0.00004099	     -0.00012298	     -0.00006918	     -0.00001280	     -0.00018887	     -0.00022665	      0.00239802	      0.00841341	      0.00585280	     -0.00784438	      0.01894033	     -0.01796486	      0.00239802	      0.00841341	      0.00585280	      0.00052838	      0.01755841	     -0.00922630	      0.00383245	      0.00467859	      0.01567845	      0.00000000	      0.00715431	      0.00000000	     -0.00686892	     -0.03174333	     -0.00589532	      0.02328083	     -0.00119010	     -0.01421220	     -0.00085353	      0.01430686	     -0.00585280	      0.00235738	      0.02064739	     -0.01707068	     -0.00573087	      0.01239656	     -0.00524314	     -0.01194948	      0.02617504	     -0.02930467	     -0.02243575	      0.01385977	     -0.00703149	     -0.01487588	      0.03023949	     -0.03662067
